# xmcd
#
# Track frame offsets:
# 150
# 11501
# 36106
# 51333
# 61491
# 74398
# 85641
# 97817
# 111879
# 120003
# 137005
# 158886
# 159361
# 159842
# 160311
# 166869
# 178737
# 188359
# 196903
#
# Disc length: 2762 seconds
#
# Revision: 0
# Processed by: cddbd v1.4PL0 Copyright (c) Steve Scherf et al.
# Submitted via: Audion 3.0.2 (http://www.panic.com/audion/)
#
DISCID=e00ac813
DTITLE=Dwele G - Rize
DYEAR=1900
DGENRE=
TTITLE0=Rize Intro
TTITLE1=Jimmy Down
TTITLE2=Imagine
TTITLE3=Flywun
TTITLE4=Whoomp
TTITLE5=Angel(Original)
TTITLE6=Dime For Your Thoughts
TTITLE7=Lady @ Mahogany
TTITLE8=Timeless feat. Tina Marie
TTITLE9=Twuneanunda
TTITLE10=Early Moring
TTITLE11=Syke
TTITLE12=Almost
TTITLE13=To the Secert Track
TTITLE14=Ready for Love
TTITLE15=Slide Out
TTITLE16=Remedy
TTITLE17=Blaze Up a Square
TTITLE18=Groove(Live Jazz Ish)
EXTD=
EXTT0=
EXTT1=
EXTT2=
EXTT3=
EXTT4=
EXTT5=
EXTT6=
EXTT7=
EXTT8=
EXTT9=
EXTT10=
EXTT11=
EXTT12=
EXTT13=
EXTT14=
EXTT15=
EXTT16=
EXTT17=
EXTT18=
PLAYORDER=
